HIERARCHY
ROOT hip
{
  OFFSET 0 90.174 2.4664
  CHANNELS 6 Xposition Yposition Zposition Zrotation Xrotation Yrotation
  JOINT abdomen
  {
    OFFSET 0 -1.186 -1.5018
    CHANNELS 6 Xposition Yposition Zposition Zrotation Xrotation Yrotation
    JOINT abdomen2
    {
      OFFSET 0 9.964 0.2134
      CHANNELS 6 Xposition Yposition Zposition Zrotation Xrotation Yrotation
      JOINT chest
      {
        OFFSET 0 13.134 -3.2573
        CHANNELS 6 Xposition Yposition Zposition Zrotation Xrotation Yrotation
        JOINT neck
        {
          OFFSET 0 20.686 -1.6905
          CHANNELS 6 Xposition Yposition Zposition Zrotation Xrotation Yrotation
          JOINT head
          {
            OFFSET 0 7.238 -0.1237
            CHANNELS 6 Xposition Yposition Zposition Zrotation Xrotation Yrotation
            End Site
            {
              OFFSET 0 0 0
            }
          }
        }
        JOINT lCollar
        {
          OFFSET 1.7069 20.075 5.0056
          CHANNELS 6 Xposition Yposition Zposition Zrotation Xrotation Yrotation
          JOINT lShldr
          {
            OFFSET 13.6458 -0.047 -4.849
            CHANNELS 6 Xposition Yposition Zposition Zrotation Xrotation Yrotation
            JOINT lForeArm
            {
              OFFSET 28.3255 -0.9759 2.2888
              CHANNELS 6 Xposition Yposition Zposition Zrotation Xrotation Yrotation
              JOINT lHand
              {
                OFFSET 22.1583 -0.53 10.8316
                CHANNELS 6 Xposition Yposition Zposition Zrotation Xrotation Yrotation
                JOINT lThumb1
                {
                  OFFSET 0.786 0.112 2.5817
                  CHANNELS 6 Xposition Yposition Zposition Zrotation Xrotation Yrotation
                  JOINT lThumb2
                  {
                    OFFSET 0.3601 -0.878 4.2331
                    CHANNELS 6 Xposition Yposition Zposition Zrotation Xrotation Yrotation
                    JOINT lThumb2_End
                    {
                      OFFSET 1.8127 -1.216 2.2227
                      CHANNELS 6 Xposition Yposition Zposition Zrotation Xrotation Yrotation
                      End Site
                      {
                        OFFSET 0.0181 -0.0122 0.0222
                      }
                    }
                  }
                }
                JOINT lCarpal1
                {
                  OFFSET 0.9571 1.114 1.7695
                  CHANNELS 6 Xposition Yposition Zposition Zrotation Xrotation Yrotation
                  JOINT lIndex1
                  {
                    OFFSET 4.1246 0.487 4.1451
                    CHANNELS 6 Xposition Yposition Zposition Zrotation Xrotation Yrotation
                    JOINT lIndex2
                    {
                      OFFSET 3.4052 -1.454 2.7682
                      CHANNELS 6 Xposition Yposition Zposition Zrotation Xrotation Yrotation
                      JOINT lIndex2_End
                      {
                        OFFSET 1.4531 -1.795 1.2713
                        CHANNELS 6 Xposition Yposition Zposition Zrotation Xrotation Yrotation
                        End Site
                        {
                          OFFSET 0.0145 -0.0179 0.0127
                        }
                      }
                    }
                  }
                  JOINT lMid1
                  {
                    OFFSET 5.6954 0.21 2.1184
                    CHANNELS 6 Xposition Yposition Zposition Zrotation Xrotation Yrotation
                    JOINT lMid2
                    {
                      OFFSET 3.9766 -1.54 2.3863
                      CHANNELS 6 Xposition Yposition Zposition Zrotation Xrotation Yrotation
                      JOINT lMid2_End
                      {
                        OFFSET 1.4042 -1.926 1.125
                        CHANNELS 6 Xposition Yposition Zposition Zrotation Xrotation Yrotation
                        End Site
                        {
                          OFFSET 0.014 -0.0193 0.0113
                        }
                      }
                    }
                  }
                }
                JOINT lCarpal2
                {
                  OFFSET 2.0956 0.66 -0.3894
                  CHANNELS 6 Xposition Yposition Zposition Zrotation Xrotation Yrotation
                  JOINT lRing1
                  {
                    OFFSET 5.0395 -0.09 2.4971
                    CHANNELS 6 Xposition Yposition Zposition Zrotation Xrotation Yrotation
                    JOINT lRing2
                    {
                      OFFSET 3.7921 -1.552 1.4806
                      CHANNELS 6 Xposition Yposition Zposition Zrotation Xrotation Yrotation
                      JOINT lRing2_End
                      {
                        OFFSET 1.4655 -1.808 0.9609
                        CHANNELS 6 Xposition Yposition Zposition Zrotation Xrotation Yrotation
                        End Site
                        {
                          OFFSET 0.0147 -0.0181 0.0096
                        }
                      }
                    }
                  }
                  JOINT lPinky1
                  {
                    OFFSET 4.9141 -1.269 0.3591
                    CHANNELS 6 Xposition Yposition Zposition Zrotation Xrotation Yrotation
                    JOINT lPinky2
                    {
                      OFFSET 3.1477 -1.685 0.8462
                      CHANNELS 6 Xposition Yposition Zposition Zrotation Xrotation Yrotation
                      JOINT lPinky2_End
                      {
                        OFFSET 0.8055 -1.585 0.7955
                        CHANNELS 6 Xposition Yposition Zposition Zrotation Xrotation Yrotation
                        End Site
                        {
                          OFFSET 0.0081 -0.0158 0.008
                        }
                      }
                    }
                  }
                }
              }
            }
          }
        }
        JOINT rCollar
        {
          OFFSET -1.7069 20.075 5.0056
          CHANNELS 6 Xposition Yposition Zposition Zrotation Xrotation Yrotation
          JOINT rShldr
          {
            OFFSET -13.6458 -0.047 -4.849
            CHANNELS 6 Xposition Yposition Zposition Zrotation Xrotation Yrotation
            JOINT rForeArm
            {
              OFFSET -28.3255 -0.9759 2.2888
              CHANNELS 6 Xposition Yposition Zposition Zrotation Xrotation Yrotation
              JOINT rHand
              {
                OFFSET -22.1583 -0.53 10.8316
                CHANNELS 6 Xposition Yposition Zposition Zrotation Xrotation Yrotation
                JOINT rThumb1
                {
                  OFFSET -0.786 0.112 2.5817
                  CHANNELS 6 Xposition Yposition Zposition Zrotation Xrotation Yrotation
                  JOINT rThumb2
                  {
                    OFFSET -0.3601 -0.878 4.2331
                    CHANNELS 6 Xposition Yposition Zposition Zrotation Xrotation Yrotation
                    JOINT rThumb2_End
                    {
                      OFFSET -1.8127 -1.216 2.2227
                      CHANNELS 6 Xposition Yposition Zposition Zrotation Xrotation Yrotation
                      End Site
                      {
                        OFFSET -0.0181 -0.0122 0.0222
                      }
                    }
                  }
                }
                JOINT rCarpal1
                {
                  OFFSET -0.9571 1.114 1.7695
                  CHANNELS 6 Xposition Yposition Zposition Zrotation Xrotation Yrotation
                  JOINT rIndex1
                  {
                    OFFSET -4.1246 0.487 4.1451
                    CHANNELS 6 Xposition Yposition Zposition Zrotation Xrotation Yrotation
                    JOINT rIndex2
                    {
                      OFFSET -3.4052 -1.454 2.7682
                      CHANNELS 6 Xposition Yposition Zposition Zrotation Xrotation Yrotation
                      JOINT rIndex2_End
                      {
                        OFFSET -1.4531 -1.795 1.2713
                        CHANNELS 6 Xposition Yposition Zposition Zrotation Xrotation Yrotation
                        End Site
                        {
                          OFFSET -0.0145 -0.018 0.0127
                        }
                      }
                    }
                  }
                  JOINT rMid1
                  {
                    OFFSET -5.6954 0.21 2.1184
                    CHANNELS 6 Xposition Yposition Zposition Zrotation Xrotation Yrotation
                    JOINT rMid2
                    {
                      OFFSET -3.9766 -1.54 2.3863
                      CHANNELS 6 Xposition Yposition Zposition Zrotation Xrotation Yrotation
                      JOINT rMid2_End
                      {
                        OFFSET -1.4042 -1.926 1.125
                        CHANNELS 6 Xposition Yposition Zposition Zrotation Xrotation Yrotation
                        End Site
                        {
                          OFFSET -0.014 -0.0193 0.0113
                        }
                      }
                    }
                  }
                }
                JOINT rCarpal2
                {
                  OFFSET -2.0956 0.66 -0.3894
                  CHANNELS 6 Xposition Yposition Zposition Zrotation Xrotation Yrotation
                  JOINT rRing1
                  {
                    OFFSET -5.0395 -0.09 2.4971
                    CHANNELS 6 Xposition Yposition Zposition Zrotation Xrotation Yrotation
                    JOINT rRing2
                    {
                      OFFSET -3.7921 -1.552 1.4806
                      CHANNELS 6 Xposition Yposition Zposition Zrotation Xrotation Yrotation
                      JOINT rRing2_End
                      {
                        OFFSET -1.4655 -1.808 0.9609
                        CHANNELS 6 Xposition Yposition Zposition Zrotation Xrotation Yrotation
                        End Site
                        {
                          OFFSET -0.0147 -0.0181 0.0096
                        }
                      }
                    }
                  }
                  JOINT rPinky1
                  {
                    OFFSET -4.9141 -1.269 0.3592
                    CHANNELS 6 Xposition Yposition Zposition Zrotation Xrotation Yrotation
                    JOINT rPinky2
                    {
                      OFFSET -3.1477 -1.685 0.8462
                      CHANNELS 6 Xposition Yposition Zposition Zrotation Xrotation Yrotation
                      JOINT rPinky2_End
                      {
                        OFFSET -0.8055 -1.585 0.7955
                        CHANNELS 6 Xposition Yposition Zposition Zrotation Xrotation Yrotation
                        End Site
                        {
                          OFFSET -0.0081 -0.0158 0.008
                        }
                      }
                    }
                  }
                }
              }
            }
          }
        }
      }
    }
  }
  JOINT lThigh
  {
    OFFSET 8.367 -8.2066 0.5982
    CHANNELS 6 Xposition Yposition Zposition Zrotation Xrotation Yrotation
    JOINT lShin
    {
      OFFSET 2.1923 -43.463 -0.4932
      CHANNELS 6 Xposition Yposition Zposition Zrotation Xrotation Yrotation
      JOINT lFoot
      {
        OFFSET 0.7333 -45.8593 -2.6451
        CHANNELS 6 Xposition Yposition Zposition Zrotation Xrotation Yrotation
        End Site
        {
          OFFSET 2.6618 -4.2699 12.3931
        }
      }
    }
  }
  JOINT rThigh
  {
    OFFSET -8.367 -8.2066 0.5982
    CHANNELS 6 Xposition Yposition Zposition Zrotation Xrotation Yrotation
    JOINT rShin
    {
      OFFSET -2.1923 -43.463 -0.4931
      CHANNELS 6 Xposition Yposition Zposition Zrotation Xrotation Yrotation
      JOINT rFoot
      {
        OFFSET -0.7333 -45.8593 -2.6451
        CHANNELS 6 Xposition Yposition Zposition Zrotation Xrotation Yrotation
        End Site
        {
          OFFSET -2.6618 -4.2699 12.3931
        }
      }
    }
  }
}
MOTION
Frames:	4
Frame Time:	0.0333333
0 90.174 2.4664 0 0 -0 0 -1.186 -1.5018 0 0 -0 0 9.964 0.2134 0 0 -0 0 13.134 -3.2573 0 0 -0 0 20.686 -1.6905 0 0 -0 0 7.238 -0.1237 0 0 -0 1.7069 20.075 5.0056 0 0 -0 13.6458 -0.047 -4.849 1.66051 0.0835086 5.75766 28.3255 -0.9759 2.2888 -0.0175111 0.895433 15.7816 22.1583 -0.53 10.8316 7.95139e-016 -1.98785e-016 -0 0.786 0.112 2.5817 5.46658e-016 -3.97569e-016 -0 0.3601 -0.878 4.2331 5.96354e-016 0 -0 1.8127 -1.216 2.2227 3.97569e-016 1.98785e-016 9.54166e-015 0.9571 1.114 1.7695 1.49089e-016 -3.97569e-016 -0 4.1246 0.487 4.1451 6.4605e-016 0 3.18055e-015 3.4052 -1.454 2.7682 5.96354e-016 0 3.18055e-015 1.4531 -1.795 1.2713 8.94531e-016 -1.98785e-016 6.36111e-015 5.6954 0.21 2.1184 6.4605e-016 0 3.18055e-015 3.9766 -1.54 2.3863 5.96354e-016 0 3.18055e-015 1.4042 -1.926 1.125 8.94531e-016 -1.98785e-016 6.36111e-015 2.0956 0.66 -0.3894 1.49089e-016 -3.97569e-016 -0 5.0395 -0.09 2.4971 6.4605e-016 0 3.18055e-015 3.7921 -1.552 1.4806 5.96354e-016 0 3.18055e-015 1.4655 -1.808 0.9609 8.94531e-016 -1.98785e-016 6.36111e-015 4.9141 -1.269 0.3591 6.4605e-016 0 3.18055e-015 3.1477 -1.685 0.8462 5.96354e-016 0 3.18055e-015 0.8055 -1.585 0.7955 8.94531e-016 -1.98785e-016 6.36111e-015 -1.7069 20.075 5.0056 0 0 -0 -13.6458 -0.047 -4.849 -1.4496 0.0636048 -5.0245 -28.3255 -0.9759 2.2888 -1.74811 1.20616 -16.8394 -22.1583 -0.53 10.8316 -1.19271e-015 1.98785e-016 -3.18055e-015 -0.786 0.112 2.5817 -3.97569e-016 1.98785e-016 -3.18055e-015 -0.3601 -0.878 4.2331 -2.98177e-016 1.98785e-016 -3.18055e-015 -1.8127 -1.216 2.2227 -2.98177e-016 3.97569e-016 -0 -0.9571 1.114 1.7695 4.96962e-016 0 -6.36111e-015 -4.1246 0.487 4.1451 -9.93923e-017 3.97569e-016 -0 -3.4052 -1.454 2.7682 -8.94531e-016 5.96354e-016 -0 -1.4531 -1.795 1.2713 -3.97569e-016 3.97569e-016 -0 -5.6954 0.21 2.1184 -9.93923e-017 3.97569e-016 -0 -3.9766 -1.54 2.3863 -8.94531e-016 5.96354e-016 -0 -1.4042 -1.926 1.125 -3.97569e-016 3.97569e-016 -0 -2.0956 0.66 -0.3894 4.96962e-016 0 -6.36111e-015 -5.0395 -0.09 2.4971 -9.93923e-017 3.97569e-016 -0 -3.7921 -1.552 1.4806 -8.94531e-016 5.96354e-016 -0 -1.4655 -1.808 0.9609 -3.97569e-016 3.97569e-016 -0 -4.9141 -1.269 0.3592 -9.93923e-017 3.97569e-016 -0 -3.1477 -1.685 0.8462 -8.94531e-016 5.96354e-016 -0 -0.8055 -1.585 0.7955 -3.97569e-016 3.97569e-016 -0 8.367 -8.2066 0.5982 -4.66115 -1.03232 0.120763 2.1923 -43.463 -0.4932 0.00990601 1.55097 0.177175 0.7333 -45.8593 -2.6451 4.65196 -0.54114 -0.255042 -8.367 -8.2066 0.5982 4.66115 -1.03222 -0.120763 -2.1923 -43.463 -0.4931 -0.00990459 1.5509 -0.177176 -0.7333 -45.8593 -2.6451 -4.65196 -0.541171 0.255041 
59.7452 -3.45255 6.23956 -179.727 86.4608 179.472 0 -1.186 -1.5018 -0.415017 -8.40764 -0.0304999 0 9.964 0.2134 -0.848571 -16.8148 -0.12541 0 13.134 -3.2573 -0.84857 -16.8148 -0.12541 0 20.686 -1.6905 -7.97892e-005 -0.0500128 -0.187091 7.10543e-015 7.238 -0.1237 0.201077 -0.000421697 -0.239552 1.7069 20.075 5.0056 -8.00266 -0.194476 -0.0013356 13.6458 -0.047 -4.849 -40.824 -3.31348 -52.7195 28.3255 -0.9759 2.2888 50.5212 -16.4544 -46.4802 22.1583 -0.53 10.8316 -6.51219 2.57104 0.0272998 0.786 0.112 2.5817 1.19271e-015 -2.98177e-016 -3.18055e-015 0.3601 -0.878 4.2331 -1.356e-006 -1.00852e-006 1.19587e-007 1.8127 -1.216 2.2227 -1.86026e-006 -3.30514e-007 2.26324e-007 0.9571 1.114 1.7695 3.97569e-016 9.93923e-017 -3.18055e-015 4.1246 0.487 4.1451 1.19271e-015 -2.98177e-015 1.59028e-014 3.4052 -1.454 2.7682 -1.356e-006 -1.00852e-006 1.19587e-007 1.4531 -1.795 1.2713 -1.86026e-006 -3.30514e-007 2.26324e-007 5.6954 0.21 2.1184 1.19271e-015 -2.98177e-015 1.59028e-014 3.9766 -1.54 2.3863 -1.356e-006 -1.00852e-006 1.19587e-007 1.4042 -1.926 1.125 -1.86026e-006 -3.30514e-007 2.26324e-007 2.0956 0.66 -0.3894 3.97569e-016 9.93923e-017 -3.18055e-015 5.0395 -0.09 2.4971 1.19271e-015 -2.98177e-015 1.59028e-014 3.7921 -1.552 1.4806 -1.356e-006 -1.00852e-006 1.19587e-007 1.4655 -1.808 0.9609 -1.86026e-006 -3.30514e-007 2.26324e-007 4.9141 -1.269 0.3591 1.19271e-015 -2.98177e-015 1.59028e-014 3.1477 -1.685 0.8462 -1.356e-006 -1.00852e-006 1.19587e-007 0.8055 -1.585 0.7955 -1.86026e-006 -3.30514e-007 2.26324e-007 -1.7069 20.075 5.0056 7.99915 -0.194721 -0.00215946 -13.6458 -0.047 -4.849 40.948 -3.14725 53.4563 -28.3255 -0.9759 2.2888 -51.9169 -17.1237 45.3309 -22.1583 -0.53 10.8316 16.6616 5.87458 -8.30693 -0.786 0.112 2.5817 0 6.36111e-015 -0 -0.3601 -0.878 4.2331 -3.18055e-015 3.97569e-015 -0 -1.8127 -1.216 2.2227 -3.18055e-015 2.38542e-015 3.18055e-015 -0.9571 1.114 1.7695 0 3.18055e-015 -0 -4.1246 0.487 4.1451 -3.18055e-015 -7.95139e-016 3.18055e-015 -3.4052 -1.454 2.7682 3.18055e-015 5.56597e-015 3.18055e-015 -1.4531 -1.795 1.2713 -1.59028e-015 6.36111e-015 3.18055e-015 -5.6954 0.21 2.1184 -3.18055e-015 -7.95139e-016 3.18055e-015 -3.9766 -1.54 2.3863 3.18055e-015 5.56597e-015 3.18055e-015 -1.4042 -1.926 1.125 -1.59028e-015 6.36111e-015 3.18055e-015 -2.0956 0.66 -0.3894 0 3.18055e-015 -0 -5.0395 -0.09 2.4971 -3.18055e-015 -7.95139e-016 3.18055e-015 -3.7921 -1.552 1.4806 3.18055e-015 5.56597e-015 3.18055e-015 -1.4655 -1.808 0.9609 -1.59028e-015 6.36111e-015 3.18055e-015 -4.9141 -1.269 0.3592 -3.18055e-015 -7.95139e-016 3.18055e-015 -3.1477 -1.685 0.8462 3.18055e-015 5.56597e-015 3.18055e-015 -0.8055 -1.585 0.7955 -1.59028e-015 6.36111e-015 3.18055e-015 8.367 -8.2066 0.5982 2.43503 -8.70915 5.29581 2.1923 -43.463 -0.4932 -113.658 63.8394 114.017 0.7333 -45.8593 -2.6451 17.7355 13.9924 14.2998 -8.367 -8.2066 0.5982 -2.29515 -8.26003 -4.50025 -2.1923 -43.463 -0.4931 77.8745 68.8553 -91.4485 -0.7333 -45.8593 -2.6451 -15.2509 21.6001 -2.64014 
59.7501 -3.46855 6.24174 -179.727 86.4608 179.472 0 -1.186 -1.5018 -0.415017 -8.40764 -0.0305 0 9.964 0.2134 -0.848571 -16.8148 -0.12541 -7.10543e-015 13.134 -3.2573 -0.848571 -16.8148 -0.12541 0 20.686 -1.6905 0.0110685 -0.0997986 -0.37225 0 7.238 -0.1237 0.400972 0.0375638 -0.47168 1.7069 20.075 5.0056 -8.00266 -0.194476 -0.00133579 13.6458 -0.047 -4.849 -40.824 -3.31347 -52.7195 28.3255 -0.9759 2.2888 49.9504 -16.3391 -46.831 22.1583 -0.53 10.8316 -6.26747 2.70125 0.0617792 0.786 0.112 2.5817 8.48304e-007 1.68762e-006 -1.15445e-008 0.3601 -0.878 4.2331 -5.05386e-007 6.76845e-007 1.08572e-007 1.8127 -1.216 2.2227 -1.59028e-015 -3.08116e-015 3.18055e-015 0.9571 1.114 1.7695 3.97569e-016 -1.98785e-016 -3.18055e-015 4.1246 0.487 4.1451 8.48303e-007 1.68762e-006 -1.15445e-008 3.4052 -1.454 2.7682 -5.05386e-007 6.76845e-007 1.08572e-007 1.4531 -1.795 1.2713 -1.19271e-015 -7.05686e-015 -0 5.6954 0.21 2.1184 8.48303e-007 1.68762e-006 -1.15445e-008 3.9766 -1.54 2.3863 -5.05386e-007 6.76845e-007 1.08572e-007 1.4042 -1.926 1.125 -1.19271e-015 -7.05686e-015 -0 2.0956 0.66 -0.3894 3.97569e-016 -1.98785e-016 -3.18055e-015 5.0395 -0.09 2.4971 8.48303e-007 1.68762e-006 -1.15445e-008 3.7921 -1.552 1.4806 -5.05386e-007 6.76845e-007 1.08572e-007 1.4655 -1.808 0.9609 -1.19271e-015 -7.05686e-015 -0 4.9141 -1.269 0.3591 8.48303e-007 1.68762e-006 -1.15445e-008 3.1477 -1.685 0.8462 -5.05386e-007 6.76845e-007 1.08572e-007 0.8055 -1.585 0.7955 -1.19271e-015 -7.05686e-015 -0 -1.7069 20.075 5.0056 7.99915 -0.194721 -0.00215946 -13.6458 -0.047 -4.849 40.948 -3.14726 53.4563 -28.3255 -0.9759 2.2888 -51.9169 -17.1237 45.3309 -22.1583 -0.53 10.8316 16.6616 5.87458 -8.30692 -0.786 0.112 2.5817 4.77083e-015 -1.59028e-015 -0 -0.3601 -0.878 4.2331 7.94503e-031 -7.15625e-015 6.36111e-015 -1.8127 -1.216 2.2227 1.59028e-015 -3.97569e-015 -3.18055e-015 -0.9571 1.114 1.7695 4.77083e-015 1.59028e-015 -0 -4.1246 0.487 4.1451 1.59028e-015 -3.97569e-015 6.36111e-015 -3.4052 -1.454 2.7682 1.59028e-015 -3.97569e-015 -3.18055e-015 -1.4531 -1.795 1.2713 -3.08973e-031 -5.56597e-015 -3.18055e-015 -5.6954 0.21 2.1184 1.59028e-015 -3.97569e-015 6.36111e-015 -3.9766 -1.54 2.3863 1.59028e-015 -3.97569e-015 -3.18055e-015 -1.4042 -1.926 1.125 -3.08973e-031 -5.56597e-015 -3.18055e-015 -2.0956 0.66 -0.3894 4.77083e-015 1.59028e-015 -0 -5.0395 -0.09 2.4971 1.59028e-015 -3.97569e-015 6.36111e-015 -3.7921 -1.552 1.4806 1.59028e-015 -3.97569e-015 -3.18055e-015 -1.4655 -1.808 0.9609 -3.08973e-031 -5.56597e-015 -3.18055e-015 -4.9141 -1.269 0.3592 1.59028e-015 -3.97569e-015 6.36111e-015 -3.1477 -1.685 0.8462 1.59028e-015 -3.97569e-015 -3.18055e-015 -0.8055 -1.585 0.7955 -3.08973e-031 -5.56597e-015 -3.18055e-015 8.367 -8.2066 0.5982 2.41274 -8.73387 5.33217 2.1923 -43.463 -0.4932 -114.441 64.1504 114.786 0.7333 -45.8593 -2.6451 17.7524 14.0146 14.3015 -8.367 -8.2066 0.5982 -2.28571 -8.28335 -4.53828 -2.1923 -43.463 -0.4931 78.819 69.2917 -92.4394 -0.7333 -45.8593 -2.6451 -15.2707 21.6416 -2.64682 
59.755 -3.48482 6.24414 -179.727 86.4608 179.472 7.10543e-015 -1.186 -1.5018 -0.415017 -8.40764 -0.0304998 0 9.964 0.2134 -0.84857 -16.8148 -0.12541 0 13.134 -3.2573 -0.84857 -16.8148 -0.12541 -7.10543e-015 20.686 -1.6905 0.0220425 -0.147927 -0.55747 0 7.238 -0.1237 0.601152 0.0747793 -0.704097 1.7069 20.075 5.0056 -8.00266 -0.194479 -0.00133585 13.6458 -0.047 -4.849 -40.824 -3.31347 -52.7195 28.3255 -0.9759 2.2888 49.3798 -16.2202 -47.1809 22.1583 -0.53 10.8316 -6.0226 2.8317 0.095706 0.786 0.112 2.5817 -1.31292e-006 -2.2191e-006 4.18298e-006 0.3601 -0.878 4.2331 1.01302e-006 -1.35136e-006 -2.20824e-007 1.8127 -1.216 2.2227 -1.19271e-015 7.95139e-015 -3.18055e-015 0.9571 1.114 1.7695 -1.98785e-015 -1.68967e-015 6.36111e-015 4.1246 0.487 4.1451 -1.31292e-006 -2.2191e-006 4.18298e-006 3.4052 -1.454 2.7682 1.01302e-006 -1.35136e-006 -2.20824e-007 1.4531 -1.795 1.2713 0 3.18055e-015 -0 5.6954 0.21 2.1184 -1.31292e-006 -2.2191e-006 4.18298e-006 3.9766 -1.54 2.3863 1.01302e-006 -1.35136e-006 -2.20824e-007 1.4042 -1.926 1.125 0 3.18055e-015 -0 2.0956 0.66 -0.3894 -1.98785e-015 -1.68967e-015 6.36111e-015 5.0395 -0.09 2.4971 -1.31292e-006 -2.2191e-006 4.18298e-006 3.7921 -1.552 1.4806 1.01302e-006 -1.35136e-006 -2.20824e-007 1.4655 -1.808 0.9609 0 3.18055e-015 -0 4.9141 -1.269 0.3591 -1.31292e-006 -2.2191e-006 4.18298e-006 3.1477 -1.685 0.8462 1.01302e-006 -1.35136e-006 -2.20824e-007 0.8055 -1.585 0.7955 0 3.18055e-015 -0 -1.7069 20.075 5.0056 7.99915 -0.194724 -0.00215886 -13.6458 -0.047 -4.849 40.948 -3.14726 53.4563 -28.3255 -0.9759 2.2888 -51.9169 -17.1237 45.3309 -22.1583 -0.53 10.8316 16.6616 5.87458 -8.3069 -0.786 0.112 2.5817 -3.64324e-007 -5.16973e-007 9.92142e-008 -0.3601 -0.878 4.2331 -1.21441e-007 -1.72324e-007 3.30714e-008 -1.8127 -1.216 2.2227 -6.36111e-015 7.95139e-016 3.18055e-015 -0.9571 1.114 1.7695 -1.59028e-015 1.59028e-015 3.18055e-015 -4.1246 0.487 4.1451 -3.64324e-007 -5.16973e-007 9.92142e-008 -3.4052 -1.454 2.7682 -1.21441e-007 -1.72324e-007 3.30714e-008 -1.4531 -1.795 1.2713 -3.18055e-015 7.95139e-016 -0 -5.6954 0.21 2.1184 -3.64324e-007 -5.16973e-007 9.92142e-008 -3.9766 -1.54 2.3863 -1.21441e-007 -1.72324e-007 3.30714e-008 -1.4042 -1.926 1.125 -3.18055e-015 7.95139e-016 -0 -2.0956 0.66 -0.3894 -1.59028e-015 1.59028e-015 3.18055e-015 -5.0395 -0.09 2.4971 -3.64324e-007 -5.16973e-007 9.92142e-008 -3.7921 -1.552 1.4806 -1.21441e-007 -1.72324e-007 3.30714e-008 -1.4655 -1.808 0.9609 -3.18055e-015 7.95139e-016 -0 -4.9141 -1.269 0.3592 -3.64324e-007 -5.16973e-007 9.92142e-008 -3.1477 -1.685 0.8462 -1.21441e-007 -1.72324e-007 3.30714e-008 -0.8055 -1.585 0.7955 -3.18055e-015 7.95139e-016 -0 8.367 -8.2066 0.5982 2.39025 -8.75756 5.36852 2.1923 -43.463 -0.4932 -115.24 64.4575 115.572 0.7333 -45.8593 -2.6451 17.7689 14.0372 14.3033 -8.367 -8.2066 0.5982 -2.27621 -8.30565 -4.57661 -2.1923 -43.463 -0.4931 79.8019 69.7226 -93.4684 -0.7333 -45.8593 -2.6451 -15.2904 21.6835 -2.6535 
